<?xml version="1.0" encoding="UTF-8"?>
<svg xmlns="http://www.w3.org/2000/svg" xmlns:xlink="http://www.w3.org/1999/xlink" width="32px" height="32px" viewBox="0 0 32 32" version="1.1">
<g id="surface1">
<path style="fill:none;stroke-width:1;stroke-linecap:round;stroke-linejoin:round;stroke:rgb(92.156863%,92.156863%,10.980392%);stroke-opacity:1;stroke-miterlimit:4;" d="M 19.330078 20.507812 C 19.330078 21.410156 18.597656 22.142578 17.701172 22.142578 C 16.798828 22.142578 16.072266 21.410156 16.072266 20.507812 C 16.072266 19.611328 16.798828 18.878906 17.701172 18.878906 C 18.597656 18.878906 19.330078 19.611328 19.330078 20.507812 Z M 19.330078 20.507812 " transform="matrix(0.666667,0,0,0.666667,0,0)"/>
<path style="fill:none;stroke-width:1;stroke-linecap:round;stroke-linejoin:round;stroke:rgb(92.156863%,92.156863%,10.980392%);stroke-opacity:1;stroke-miterlimit:4;" d="M 28.839844 19.511719 C 28.839844 20.314453 28.183594 20.970703 27.380859 20.970703 C 26.572266 20.970703 25.921875 20.314453 25.921875 19.511719 C 25.921875 18.703125 26.572266 18.052734 27.380859 18.052734 C 28.183594 18.052734 28.839844 18.703125 28.839844 19.511719 Z M 28.839844 19.511719 " transform="matrix(0.666667,0,0,0.666667,0,0)"/>
<path style="fill:none;stroke-width:1;stroke-linecap:round;stroke-linejoin:round;stroke:rgb(92.156863%,92.156863%,10.980392%);stroke-opacity:1;stroke-miterlimit:4;" d="M 24 1.998047 C 13.353516 2.044922 4.265625 9.703125 2.419922 20.191406 C 0.574219 30.673828 6.503906 40.980469 16.5 44.648438 C 14.419922 36.445312 12.75 28.142578 11.501953 19.769531 C 11.501953 14.138672 13.001953 11.109375 19.21875 10.148438 C 17.074219 9.539062 14.835938 9.333984 12.621094 9.550781 C 13.001953 8.279297 14.167969 8.337891 14.900391 8.132812 C 15.222656 7.910156 12.972656 7.289062 13.048828 7.330078 C 13.916016 6.796875 14.929688 6.568359 15.9375 6.679688 C 19.341797 6.832031 23.748047 9.058594 24.158203 10.371094 C 30.9375 11.162109 32.308594 22.5 31.259766 23.367188 C 31.951172 23.712891 35.261719 22.371094 37.839844 21.46875 C 40.001953 20.759766 43.101562 22.558594 39.398438 24 C 39.398438 24 32.25 27.480469 28.769531 26.742188 C 28.371094 26.560547 27.914062 26.578125 27.533203 26.783203 C 27.146484 26.994141 26.882812 27.369141 26.818359 27.802734 C 27.662109 30.539062 31.101562 29.929688 33.128906 29.689453 L 37.060547 28.998047 C 43.277344 27.691406 35.507812 35.619141 24.351562 30.199219 C 24.240234 32.929688 24.779297 35.648438 25.921875 38.132812 C 26.589844 38.068359 27.140625 38.132812 27.199219 38.320312 C 27.257812 38.478516 27.304688 38.642578 27.328125 38.8125 C 28.429688 38.009766 31.330078 35.947266 32.080078 36.117188 C 33 36.339844 33.181641 42.978516 32.390625 43.201172 C 31.798828 43.412109 29.091797 42.462891 27.662109 41.912109 L 27.960938 42.5625 C 28.412109 43.488281 28.851562 44.431641 29.261719 45.369141 C 40.078125 42.720703 47.214844 32.408203 45.873047 21.351562 C 44.53125 10.294922 35.138672 1.980469 24 1.998047 Z M 24 1.998047 " transform="matrix(0.666667,0,0,0.666667,0,0)"/>
<path style="fill:none;stroke-width:1;stroke-linecap:round;stroke-linejoin:round;stroke:rgb(92.156863%,92.156863%,10.980392%);stroke-opacity:1;stroke-miterlimit:4;" d="M 25.921875 38.109375 C 25.089844 38.115234 24.287109 38.367188 23.601562 38.830078 C 21.837891 37.992188 18.322266 36.369141 18.28125 37.382812 C 18.152344 38.701172 18.28125 44.191406 18.978516 44.589844 C 19.511719 44.888672 22.5 43.271484 23.982422 42.427734 L 24 42.427734 C 25.113281 42.615234 26.261719 42.46875 27.287109 42 C 27.369141 41.947266 27.433594 41.871094 27.462891 41.777344 L 27.662109 41.847656 " transform="matrix(0.666667,0,0,0.666667,0,0)"/>
<path style="fill:none;stroke-width:1;stroke-linecap:round;stroke-linejoin:round;stroke:rgb(92.156863%,92.156863%,10.980392%);stroke-opacity:1;stroke-miterlimit:4;" d="M 27.662109 41.888672 C 29.091797 42.439453 31.798828 43.388672 32.390625 43.177734 C 33.181641 42.960938 33 36.322266 32.080078 36.099609 C 31.330078 35.929688 28.429688 37.992188 27.328125 38.789062 C 27.304688 38.625 27.257812 38.460938 27.199219 38.302734 C 27.140625 38.109375 26.589844 38.050781 25.921875 38.109375 " transform="matrix(0.666667,0,0,0.666667,0,0)"/>
</g>
</svg>
