<?xml version="1.0" encoding="UTF-8"?>
<svg xmlns="http://www.w3.org/2000/svg" xmlns:xlink="http://www.w3.org/1999/xlink" width="32px" height="32px" viewBox="0 0 32 32" version="1.1">
<g id="surface1">
<path style="fill:none;stroke-width:1;stroke-linecap:round;stroke-linejoin:round;stroke:rgb(92.156863%,92.156863%,10.980392%);stroke-opacity:1;stroke-miterlimit:4;" d="M 38.648386 40.294868 C 42.726506 36.539014 45.070252 31.037068 45.070252 24.492155 C 45.070252 22.96286 44.929628 21.492159 44.683534 20.085911 L 24.433561 20.085911 L 24.433561 28.42379 L 35.999952 28.42379 C 35.496046 31.101521 33.960892 33.351518 31.675739 34.892532 " transform="matrix(0.666668,0,0,0.666668,0,0)"/>
<path style="fill:none;stroke-width:1;stroke-linecap:round;stroke-linejoin:round;stroke:rgb(92.156863%,92.156863%,10.980392%);stroke-opacity:1;stroke-miterlimit:4;" d="M 5.226556 33.656205 C 8.777332 40.664008 16.01951 45.492127 24.433561 45.492127 C 30.234335 45.492127 35.097609 43.576114 38.648386 40.294868 L 31.675739 34.892532 C 29.765585 36.169874 27.322229 36.960888 24.433561 36.960888 C 18.837866 36.960888 14.085919 33.187456 12.398421 28.101525 " transform="matrix(0.666668,0,0,0.666668,0,0)"/>
<path style="fill:none;stroke-width:1;stroke-linecap:round;stroke-linejoin:round;stroke:rgb(92.156863%,92.156863%,10.980392%);stroke-opacity:1;stroke-miterlimit:4;" d="M 5.226556 14.367168 C 3.773432 17.261696 2.929684 20.513645 2.929684 23.999968 C 2.929684 27.486291 3.773432 30.73824 5.226556 33.632768 L 10.804673 29.296836 C 10.804673 29.296836 12.398421 28.089806 12.398421 28.089806 C 11.964828 26.789027 11.695297 25.429654 11.695297 23.999968 C 11.695297 22.570282 11.964828 21.210909 12.398421 19.91013 " transform="matrix(0.666668,0,0,0.666668,0,0)"/>
<path style="fill:none;stroke-width:1;stroke-linecap:round;stroke-linejoin:round;stroke:rgb(92.156863%,92.156863%,10.980392%);stroke-opacity:1;stroke-miterlimit:4;" d="M 24.433561 11.062485 C 27.585901 11.062485 30.404256 12.164046 32.648394 14.273418 L 38.818308 8.109364 C 35.085891 4.623041 30.234335 2.507809 24.433561 2.507809 C 16.01951 2.507809 8.777332 7.335928 5.226556 14.367168 L 12.398421 19.91013 C 14.085919 14.835918 18.837866 11.062485 24.433561 11.062485 Z M 24.433561 11.062485 " transform="matrix(0.666668,0,0,0.666668,0,0)"/>
</g>
</svg>
